<?xml version="1.0" encoding="UTF-8" standalone="no"?>
<!DOCTYPE svg PUBLIC "-//W3C//DTD SVG 1.1//EN"
 "http://www.w3.org/Graphics/SVG/1.1/DTD/svg11.dtd">
<!-- Generated by graphviz version 2.38.0 (20140413.2041)
 -->
<!-- Title: G Pages: 1 -->
<svg width="146pt" height="240pt"
 viewBox="0.00 0.00 146.00 240.00" xmlns="http://www.w3.org/2000/svg" xmlns:xlink="http://www.w3.org/1999/xlink">
<g id="graph0" class="graph" transform="scale(1 1) rotate(0) translate(4 236)">
<title>G</title>
<polygon fill="white" stroke="none" points="-4,4 -4,-236 142,-236 142,4 -4,4"/>
<g id="clust1" class="cluster"><title>cluster_Global</title>
<path fill="none" stroke="gray" d="M12,-8C12,-8 126,-8 126,-8 132,-8 138,-14 138,-20 138,-20 138,-212 138,-212 138,-218 132,-224 126,-224 126,-224 12,-224 12,-224 6,-224 0,-218 0,-212 0,-212 0,-20 0,-20 0,-14 6,-8 12,-8"/>
<text text-anchor="middle" x="69" y="-211.2" font-family="Times,serif" font-size="11.00" fill="gray">Global</text>
</g>
<g id="clust2" class="cluster"><title>cluster_\DronePluginSdk</title>
<path fill="none" stroke="gray" d="M20,-16C20,-16 118,-16 118,-16 124,-16 130,-22 130,-28 130,-28 130,-184 130,-184 130,-190 124,-196 118,-196 118,-196 20,-196 20,-196 14,-196 8,-190 8,-184 8,-184 8,-28 8,-28 8,-22 14,-16 20,-16"/>
<text text-anchor="middle" x="69" y="-183.2" font-family="Times,serif" font-size="11.00" fill="gray">DronePluginSdk</text>
</g>
<!-- \\DronePluginSdk\\Repo -->
<g id="node1" class="node"><title>\\DronePluginSdk\\Repo</title>
<polygon fill="none" stroke="black" points="96,-168 42,-168 42,-132 96,-132 96,-168"/>
<text text-anchor="middle" x="69" y="-147.2" font-family="Courier,monospace" font-size="11.00">Repo</text>
</g>
<!-- \\DronePluginSdk\\Commit -->
<g id="node2" class="node"><title>\\DronePluginSdk\\Commit</title>
<polygon fill="none" stroke="black" points="100,-114 38,-114 38,-78 100,-78 100,-114"/>
<text text-anchor="middle" x="69" y="-93.2" font-family="Courier,monospace" font-size="11.00">Commit</text>
</g>
<!-- \\DronePluginSdk\\Build -->
<g id="node3" class="node"><title>\\DronePluginSdk\\Build</title>
<polygon fill="none" stroke="black" points="96,-60 42,-60 42,-24 96,-24 96,-60"/>
<text text-anchor="middle" x="69" y="-39.2" font-family="Courier,monospace" font-size="11.00">Build</text>
</g>
</g>
</svg>
